<svg width="410" height="316" viewBox="0 0 410 316" fill="none" xmlns="http://www.w3.org/2000/svg">
<g filter="url(#filter0_dd_43_23479)">
<g filter="url(#filter1_dd_43_23479)">
<g clip-path="url(#clip0_43_23479)">
<path d="M27.3644 42.3403C27.5957 35.717 33.1525 30.5352 39.7759 30.7665L329.599 40.8873C336.223 41.1186 341.404 46.6754 341.173 53.2988L334.228 252.178C333.997 258.801 328.44 263.983 321.817 263.751L31.9933 253.631C25.3699 253.399 20.1881 247.842 20.4194 241.219L27.3644 42.3403Z" fill="white"/>
<rect width="314" height="50" transform="translate(27.7832 30.3477) rotate(2)" fill="#00509D"/>
<path d="M118.099 66.8338C117.146 66.8005 116.293 66.6407 115.54 66.3542C114.805 66.051 114.177 65.6475 113.657 65.1438C113.155 64.6232 112.769 64.0114 112.498 63.3082C112.246 62.5883 112.135 61.7953 112.165 60.9291L112.476 52.0425L115.308 52.1414L115.005 60.8202C114.965 61.9635 115.22 62.8569 115.77 63.5005C116.337 64.1447 117.14 64.4849 118.18 64.5212C119.219 64.5575 120.035 64.2738 120.629 63.6702C121.24 63.0671 121.565 62.1939 121.605 61.0506L121.908 52.3719L124.74 52.4708L124.43 61.3574C124.4 62.2235 124.225 63.0066 123.906 63.7065C123.604 64.3898 123.176 64.9732 122.622 65.4568C122.085 65.9237 121.431 66.2824 120.659 66.533C119.905 66.7668 119.052 66.8671 118.099 66.8338ZM122.047 49.8272C121.146 49.7958 120.478 49.5556 120.043 49.1068C119.607 48.658 119.403 48.0439 119.431 47.2644L119.494 45.4455L121.989 45.5326L121.917 47.5853L128.673 47.8212L128.595 50.0559L122.047 49.8272ZM133.824 67.3829C131.779 67.3115 130.225 66.6155 129.162 65.2949C128.116 63.9576 127.635 62.0764 127.72 59.6512C127.803 57.278 128.23 55.4718 129.002 54.2326C129.774 52.9761 130.914 52.3742 132.421 52.4268C133.166 52.4529 133.782 52.6912 134.269 53.1418C134.757 53.5751 135.057 54.1666 135.169 54.9163L135.325 54.9217C135.507 54.1823 135.891 53.6147 136.477 53.2189C137.064 52.8058 137.773 52.6138 138.605 52.6428C139.662 52.6797 140.481 53.0552 141.063 53.7693C141.646 54.466 141.915 55.438 141.872 56.6853L141.5 67.3388L138.667 67.2399L139.031 56.8202C139.053 56.2139 138.947 55.7593 138.715 55.4564C138.483 55.1534 138.141 54.9941 137.691 54.9783C137.136 54.959 136.748 55.1535 136.526 55.562C136.304 55.9532 136.149 56.4074 136.062 56.9247L134.295 56.863C134.269 56.6019 134.226 56.3489 134.165 56.104C134.122 55.8596 134.043 55.6487 133.927 55.4713C133.813 55.2765 133.662 55.1238 133.475 55.0132C133.306 54.8859 133.083 54.8174 132.806 54.8077C132.096 54.7829 131.59 55.1121 131.288 55.7954C130.988 56.4613 130.818 57.3572 130.778 58.4832L130.695 60.8738C130.673 61.4974 130.723 62.0628 130.844 62.57C130.965 63.0772 131.166 63.5178 131.448 63.8919C131.748 64.2492 132.128 64.5313 132.589 64.7382C133.067 64.9457 133.653 65.0616 134.346 65.0858C134.519 65.0918 134.701 65.0895 134.893 65.0788C135.084 65.0682 135.275 65.0488 135.467 65.0208L135.701 67.2664C135.421 67.326 135.108 67.3584 134.761 67.3636C134.43 67.3868 134.118 67.3932 133.824 67.3829ZM150.507 67.9655C149.173 67.9189 148.046 67.6541 147.127 67.1711C146.225 66.6713 145.442 65.9936 144.778 65.1379L146.63 63.5115C147.127 64.1879 147.716 64.7114 148.396 65.0821C149.077 65.4528 149.859 65.6535 150.743 65.6844C151.678 65.717 152.377 65.5766 152.839 65.2632C153.319 64.9331 153.569 64.4563 153.591 63.8326C153.61 63.2783 153.443 62.8475 153.09 62.5404C152.754 62.2164 152.207 61.9892 151.449 61.8587L150.13 61.6305C149.492 61.5215 148.89 61.3617 148.325 61.1512C147.76 60.9407 147.267 60.6633 146.846 60.3191C146.441 59.9754 146.118 59.5565 145.875 59.0624C145.649 58.5689 145.549 57.9671 145.574 57.2568C145.598 56.5639 145.749 55.9535 146.028 55.4256C146.307 54.8803 146.687 54.434 147.167 54.0865C147.648 53.7217 148.213 53.4553 148.86 53.2871C149.525 53.1195 150.247 53.0494 151.027 53.0766C152.326 53.122 153.385 53.3584 154.202 53.7858C155.02 54.196 155.738 54.7587 156.355 55.474L154.58 57.129C154.197 56.6647 153.699 56.2658 153.087 55.9322C152.474 55.5986 151.76 55.4176 150.946 55.3892C150.097 55.3595 149.451 55.5017 149.006 55.8157C148.562 56.1297 148.329 56.5726 148.309 57.1442C148.288 57.7505 148.472 58.2079 148.86 58.5163C149.248 58.8247 149.83 59.0445 150.606 59.1756L151.924 59.4298C152.596 59.5573 153.206 59.726 153.753 59.9359C154.318 60.1464 154.794 60.4232 155.181 60.7663C155.569 61.092 155.858 61.4923 156.05 61.9673C156.259 62.4429 156.352 63.0098 156.329 63.6681C156.305 64.3437 156.145 64.9538 155.848 65.4984C155.569 66.0437 155.171 66.5067 154.655 66.8876C154.157 67.2518 153.549 67.5341 152.83 67.7345C152.13 67.9181 151.356 67.9952 150.507 67.9655ZM165.5 68.4891C164.547 68.4558 163.694 68.2959 162.941 68.0095C162.206 67.7063 161.578 67.3028 161.058 66.799C160.556 66.2785 160.17 65.6667 159.899 64.9635C159.647 64.2436 159.536 63.4505 159.566 62.5844L159.876 53.6978L162.709 53.7967L162.406 62.4754C162.366 63.6187 162.621 64.5122 163.171 65.1558C163.738 65.7999 164.541 66.1402 165.58 66.1765C166.62 66.2128 167.436 65.9291 168.03 65.3254C168.64 64.7224 168.966 63.8492 169.006 62.7059L169.476 49.2461L172.308 49.345L171.831 63.0127C171.8 63.8788 171.626 64.6619 171.306 65.3618C171.005 66.045 170.577 66.6285 170.022 67.1121C169.486 67.579 168.832 67.9377 168.06 68.1882C167.306 68.4221 166.452 68.5223 165.5 68.4891ZM180.653 69.0182C179.319 68.9716 178.192 68.7068 177.272 68.2238C176.371 67.724 175.588 67.0463 174.924 66.1906L176.776 64.5642C177.272 65.2406 177.861 65.7642 178.542 66.1348C179.223 66.5055 180.005 66.7062 180.888 66.7371C181.824 66.7697 182.523 66.6294 182.984 66.316C183.464 65.9858 183.715 65.509 183.737 64.8853C183.756 64.331 183.589 63.9003 183.236 63.5931C182.9 63.2692 182.353 63.0419 181.594 62.9114L180.276 62.6832C179.638 62.5742 179.036 62.4145 178.471 62.2039C177.906 61.9934 177.413 61.716 176.991 61.3718C176.587 61.0281 176.263 60.6093 176.021 60.1151C175.795 59.6216 175.695 59.0198 175.719 58.3095C175.744 57.6166 175.895 57.0062 176.174 56.4783C176.453 55.933 176.833 55.4867 177.313 55.1392C177.794 54.7745 178.358 54.508 179.006 54.3398C179.671 54.1723 180.393 54.1021 181.173 54.1293C182.472 54.1747 183.53 54.4111 184.348 54.8385C185.166 55.2487 185.883 55.8114 186.5 56.5267L184.725 58.1818C184.343 57.7175 183.845 57.3185 183.232 56.9849C182.619 56.6513 181.906 56.4703 181.092 56.4419C180.243 56.4122 179.596 56.5544 179.152 56.8684C178.707 57.1825 178.475 57.6253 178.455 58.1969C178.434 58.8032 178.617 59.2606 179.005 59.569C179.394 59.8774 179.976 60.0972 180.751 60.2283L182.069 60.4825C182.741 60.61 183.351 60.7787 183.899 60.9886C184.464 61.1991 184.94 61.4759 185.327 61.819C185.714 62.1447 186.004 62.545 186.195 63.02C186.404 63.4956 186.497 64.0625 186.474 64.7208C186.451 65.3964 186.291 66.0065 185.994 66.5511C185.715 67.0964 185.317 67.5595 184.801 67.9403C184.302 68.3045 183.694 68.5868 182.976 68.7872C182.276 68.9708 181.501 69.0479 180.653 69.0182ZM192.361 66.7475C191.46 66.716 190.792 66.4759 190.357 66.0271C189.922 65.5783 189.717 64.9641 189.745 64.1846L189.791 62.8594L192.337 62.9483L192.288 64.3774L196.627 64.529L196.544 66.8935L192.361 66.7475ZM192.59 60.1994C191.689 60.168 191.02 59.9365 190.585 59.505C190.149 59.0562 189.945 58.4421 189.972 57.6626L190.02 56.3114L192.566 56.4003L192.516 57.8294L196.856 57.981L196.773 60.3455L192.59 60.1994ZM205.703 69.893C204.837 69.8628 204.053 69.7313 203.35 69.4986C202.664 69.2666 202.077 68.9339 201.59 68.5006C201.102 68.0673 200.73 67.5254 200.476 66.8747C200.221 66.2241 200.109 65.4657 200.139 64.5996C200.173 63.6122 200.33 62.8372 200.61 62.2746C200.908 61.6953 201.238 61.1779 201.601 60.7223C201.945 60.3007 202.229 59.8683 202.453 59.4252C202.676 58.9821 202.796 58.5266 202.813 58.0589L202.83 57.5652L200.206 57.4736L200.288 55.109L203.25 55.2125C204.03 55.2397 204.621 55.4511 205.023 55.8467C205.444 56.2256 205.643 56.7355 205.62 57.3765L205.614 57.5584C205.594 58.13 205.471 58.6807 205.244 59.2105C205.035 59.7235 204.72 60.3195 204.297 60.9985C203.966 61.542 203.697 62.0442 203.49 62.5053C203.301 62.9496 203.196 63.4749 203.175 64.0812L203.148 64.8348C203.118 65.7009 203.329 66.3673 203.781 66.8341C204.25 67.3014 204.901 67.5496 205.732 67.5786C206.564 67.6076 207.221 67.4051 207.705 66.9711C208.205 66.5376 208.471 65.8878 208.501 65.0217L208.571 63.0209C208.599 62.2241 208.482 61.6043 208.22 61.1615C207.975 60.7194 207.549 60.4877 206.943 60.4665L206.449 60.4493L206.525 58.2926L207.148 58.3144C207.668 58.3325 208.098 58.2001 208.437 57.9171C208.777 57.6168 208.959 57.1202 208.983 56.4273L209.037 54.8942L211.817 54.9913L211.771 56.3165C211.744 57.096 211.487 57.7461 211 58.2668C210.532 58.7708 209.871 59.0772 209.017 59.1861L209.012 59.342C209.885 59.6501 210.533 60.219 210.955 61.0489C211.395 61.8621 211.592 62.9183 211.547 64.2175C211.484 66.0364 210.966 67.4578 209.993 68.4819C209.039 69.4892 207.609 69.9596 205.703 69.893ZM221.475 60.4537C221.504 59.6222 221.31 58.9737 220.893 58.5082C220.476 58.0427 219.799 57.7936 218.864 57.7609C218.067 57.7331 217.42 57.8839 216.923 58.2134C216.426 58.5256 215.995 58.9442 215.63 59.4691L213.968 57.9021C214.463 57.1389 215.117 56.5287 215.931 56.0715C216.745 55.6143 217.81 55.4087 219.126 55.4547C220.859 55.5152 222.17 55.9685 223.059 56.8148C223.949 57.661 224.367 58.8463 224.314 60.3707L223.97 70.2187L221.138 70.1198L221.475 60.4537ZM233.21 70.8536C232.344 70.8233 231.559 70.6919 230.856 70.4592C230.171 70.2271 229.584 69.8944 229.096 69.4611C228.608 69.0279 228.237 68.4859 227.982 67.8353C227.727 67.1847 227.615 66.4263 227.645 65.5601C227.68 64.5727 227.837 63.7978 228.117 63.2352C228.415 62.6559 228.745 62.1384 229.108 61.6828C229.452 61.2612 229.736 60.8289 229.959 60.3857C230.183 59.9426 230.303 59.4872 230.319 59.0195L230.337 58.5258L227.712 58.4341L227.795 56.0696L230.757 56.173C231.536 56.2002 232.127 56.4117 232.53 56.8073C232.95 57.1862 233.149 57.6961 233.127 58.337L233.121 58.5189C233.101 59.0906 232.977 59.6413 232.751 60.171C232.542 60.6841 232.226 61.2801 231.804 61.9591C231.472 62.5025 231.203 63.0048 230.997 63.4658C230.808 63.9102 230.703 64.4355 230.681 65.0418L230.655 65.7953C230.625 66.6615 230.836 67.3279 231.288 67.7946C231.757 68.2619 232.407 68.5101 233.239 68.5392C234.07 68.5682 234.728 68.3657 235.211 67.9316C235.712 67.4982 235.978 66.8484 236.008 65.9822L236.078 63.9815C236.106 63.1846 235.988 62.5648 235.726 62.1221C235.482 61.6799 235.056 61.4483 234.45 61.4271L233.956 61.4099L234.031 59.2532L234.655 59.2749C235.175 59.2931 235.604 59.1607 235.944 58.8777C236.284 58.5774 236.466 58.0807 236.49 57.3878L236.544 55.8548L239.324 55.9519L239.278 57.2771C239.25 58.0566 238.994 58.7067 238.507 59.2274C238.039 59.7313 237.377 60.0378 236.524 60.1467L236.518 60.3026C237.392 60.6106 238.04 61.1796 238.462 62.0095C238.902 62.8227 239.099 63.8788 239.054 65.1781C238.99 66.9969 238.472 68.4184 237.5 69.4424C236.546 70.4497 235.116 70.9201 233.21 70.8536ZM246.971 71.3341C245.481 71.2821 244.345 70.7655 243.565 69.7843C242.784 68.7858 242.425 67.4031 242.487 65.6361L242.802 56.5937L245.635 56.6926L245.33 65.4232C245.291 66.5319 245.487 67.3886 245.916 67.9933C246.364 68.5813 247.099 68.8931 248.121 68.9288C248.502 68.9421 248.885 68.9121 249.269 68.8388C249.654 68.7482 249.997 68.6041 250.299 68.4065C250.618 68.2095 250.869 67.9581 251.054 67.6523C251.256 67.3299 251.364 66.9521 251.379 66.519L251.715 56.9049L254.547 57.0038L254.13 68.9565L255.637 69.0091L255.556 71.3217L253.685 71.2564C252.958 71.231 252.419 71.0041 252.07 70.5756C251.721 70.1298 251.543 69.5252 251.535 68.7618L251.405 68.7573C251.083 69.5439 250.549 70.1843 249.803 70.6786C249.075 71.1561 248.131 71.3746 246.971 71.3341Z" fill="white"/>
<rect x="37.6118" y="92.7286" width="106" height="8" transform="rotate(2 37.6118 92.7286)" fill="#D2D2D2"/>
<rect x="37.1929" y="104.721" width="47" height="8" transform="rotate(2 37.1929 104.721)" fill="#D2D2D2"/>
<rect x="35.5703" y="151.193" width="161" height="8" transform="rotate(2 35.5703 151.193)" fill="#D2D2D2"/>
<rect x="35.1514" y="163.186" width="161" height="8" transform="rotate(2 35.1514 163.186)" fill="#D2D2D2"/>
<rect x="34.7329" y="175.178" width="101" height="8" transform="rotate(2 34.7329 175.178)" fill="#D2D2D2"/>
<rect x="33.1099" y="221.65" width="65" height="8" transform="rotate(2 33.1099 221.65)" fill="#D2D2D2"/>
<rect x="32.6909" y="233.643" width="65" height="8" transform="rotate(2 32.6909 233.643)" fill="#D2D2D2"/>
<rect x="125.054" y="224.861" width="65" height="8" transform="rotate(2 125.054 224.861)" fill="#D2D2D2"/>
<rect x="124.635" y="236.853" width="65" height="8" transform="rotate(2 124.635 236.853)" fill="#D2D2D2"/>
<rect x="221.5" y="99.1501" width="106" height="149" rx="8" transform="rotate(2 221.5 99.1501)" fill="#D2D2D2"/>
<path d="M271.58 175.687C286.317 176.202 298.678 164.675 299.193 149.938C299.708 135.2 288.181 122.839 273.444 122.325C258.706 121.81 246.345 133.337 245.831 148.074C245.316 162.811 256.843 175.172 271.58 175.687ZM290.024 183.01L286.543 182.888C281.841 184.853 276.65 185.882 271.231 185.693C265.811 185.503 260.725 184.115 256.151 181.827L252.67 181.705C237.204 181.165 224.217 193.275 223.677 208.742L223.374 217.413C223.181 222.937 227.506 227.575 233.03 227.768L306.403 230.331C311.927 230.523 316.565 226.198 316.758 220.675L317.061 212.003C317.601 196.536 305.491 183.55 290.024 183.01Z" fill="white"/>
</g>
<path d="M39.7584 31.2661L329.582 41.387C335.929 41.6087 340.895 46.9339 340.673 53.2813L333.728 252.16C333.507 258.508 328.181 263.473 321.834 263.252L32.0108 253.131C25.6634 252.909 20.6974 247.584 20.9191 241.237L27.8641 42.3578L27.8994 41.7669C28.4193 35.7051 33.6094 31.0514 39.7584 31.2661Z" stroke="white"/>
</g>
<g clip-path="url(#clip1_43_23479)">
<path d="M44.1072 67.2744C42.9564 60.7476 47.3144 54.5237 53.8411 53.3729L339.435 3.01492C345.962 1.86408 352.186 6.2221 353.337 12.7488L387.893 208.726C389.044 215.252 384.686 221.476 378.159 222.627L92.5647 272.985C86.038 274.136 79.814 269.778 78.6632 263.251L44.1072 67.2744Z" fill="white"/>
<rect width="314" height="50" transform="translate(42.0234 55.4567) rotate(-10)" fill="#00509D"/>
<path d="M137.951 72.3678C137.013 72.5334 136.145 72.5543 135.349 72.4307C134.567 72.287 133.869 72.0228 133.255 71.6382C132.656 71.2335 132.151 70.7153 131.74 70.0836C131.344 69.4319 131.07 68.6793 130.92 67.8258L129.376 59.0689L132.167 58.5768L133.675 67.1289C133.873 68.2555 134.308 69.0764 134.98 69.5916C135.669 70.1038 136.525 70.2696 137.55 70.089C138.574 69.9084 139.313 69.4612 139.768 68.7473C140.24 68.0304 140.377 67.1087 140.178 65.9821L138.67 57.43L141.461 56.9379L143.005 65.6948C143.156 66.5483 143.148 67.3506 142.981 68.1016C142.828 68.8326 142.531 69.4922 142.089 70.0806C141.661 70.6488 141.096 71.1357 140.393 71.5413C139.704 71.9268 138.89 72.2023 137.951 72.3678ZM138.277 54.9121C137.389 55.0686 136.686 54.9726 136.167 54.6241C135.648 54.2756 135.321 53.7173 135.185 52.9491L134.869 51.1568L137.327 50.7233L137.684 52.7461L144.341 51.5723L144.73 53.7743L138.277 54.9121ZM153.447 69.6356C151.432 69.9908 149.768 69.6331 148.452 68.5625C147.151 67.4719 146.29 65.7317 145.869 63.3419C145.456 61.0033 145.499 59.1477 145.996 57.7752C146.49 56.3856 147.48 55.5599 148.965 55.298C149.699 55.1686 150.351 55.2736 150.921 55.6131C151.489 55.9355 151.905 56.4516 152.171 57.1616L152.325 57.1345C152.349 56.3734 152.607 55.7383 153.098 55.2293C153.586 54.7032 154.239 54.368 155.059 54.2235C156.1 54.0399 156.98 54.2368 157.697 54.8143C158.412 55.3746 158.878 56.2694 159.095 57.4984L160.946 67.9964L158.155 68.4886L156.344 58.221C156.239 57.6235 156.041 57.2008 155.751 56.9527C155.461 56.7047 155.094 56.6198 154.65 56.698C154.104 56.7943 153.765 57.0654 153.632 57.5112C153.496 57.9399 153.44 58.4164 153.462 58.9405L151.721 59.2475C151.641 58.9975 151.546 58.759 151.436 58.532C151.343 58.3021 151.221 58.1123 151.072 57.9627C150.919 57.796 150.74 57.678 150.534 57.6087C150.342 57.5193 150.11 57.4986 149.837 57.5468C149.137 57.6702 148.71 58.0974 148.558 58.8284C148.402 59.5422 148.422 60.454 148.618 61.5635L149.033 63.9192C149.141 64.5337 149.307 65.0764 149.531 65.5474C149.755 66.0183 150.044 66.4075 150.397 66.7148C150.765 67.002 151.195 67.1988 151.689 67.3053C152.2 67.4088 152.797 67.4004 153.48 67.28C153.651 67.2499 153.828 67.2098 154.013 67.1596C154.198 67.1094 154.381 67.0507 154.563 66.9834L155.259 69.1313C154.997 69.2477 154.698 69.3446 154.359 69.4218C154.041 69.5132 153.737 69.5844 153.447 69.6356ZM169.887 66.7368C168.572 66.9685 167.415 66.9438 166.415 66.6625C165.429 66.3611 164.522 65.861 163.695 65.162L165.168 63.1861C165.795 63.7445 166.48 64.1342 167.223 64.3552C167.966 64.5762 168.772 64.6099 169.643 64.4564C170.565 64.2939 171.219 64.0113 171.606 63.6088C172.006 63.1861 172.152 62.6675 172.044 62.053C171.948 61.5067 171.695 61.1201 171.285 60.8931C170.89 60.6461 170.307 60.5376 169.538 60.5676L168.201 60.6186C167.554 60.6446 166.932 60.6134 166.336 60.525C165.74 60.4365 165.199 60.2677 164.715 60.0187C164.249 59.7666 163.845 59.4241 163.505 58.9913C163.181 58.5555 162.958 57.9876 162.835 57.2878C162.714 56.605 162.735 55.9764 162.898 55.4021C163.058 54.8107 163.337 54.2951 163.734 53.8554C164.129 53.3986 164.626 53.0206 165.224 52.7215C165.84 52.4193 166.531 52.2005 167.3 52.0651C168.58 51.8394 169.664 51.8506 170.553 52.0987C171.438 52.3298 172.257 52.731 173.009 53.3024L171.617 55.2903C171.146 54.9158 170.577 54.629 169.908 54.4301C169.239 54.2312 168.504 54.2025 167.701 54.3439C166.865 54.4914 166.262 54.765 165.892 55.1645C165.523 55.5641 165.388 56.0456 165.487 56.6089C165.592 57.2063 165.867 57.6155 166.311 57.8365C166.755 58.0575 167.37 58.1514 168.156 58.1184L169.498 58.093C170.182 58.078 170.813 58.1163 171.392 58.2077C171.989 58.2962 172.512 58.4679 172.962 58.723C173.409 58.9611 173.775 59.2925 174.061 59.7172C174.364 60.139 174.573 60.6742 174.687 61.3229C174.805 61.9886 174.775 62.6187 174.598 63.2131C174.439 63.8044 174.146 64.3401 173.72 64.82C173.308 65.2798 172.772 65.6824 172.111 66.0277C171.465 66.3529 170.723 66.5893 169.887 66.7368ZM184.66 64.1317C183.722 64.2973 182.854 64.3182 182.058 64.1946C181.276 64.0509 180.578 63.7868 179.964 63.4021C179.365 62.9974 178.86 62.4792 178.449 61.8476C178.053 61.1958 177.779 60.4432 177.629 59.5897L176.085 50.8328L178.876 50.3407L180.384 58.8928C180.582 60.0194 181.018 60.8403 181.689 61.3555C182.378 61.8677 183.234 62.0335 184.259 61.8529C185.283 61.6723 186.022 61.2251 186.477 60.5112C186.949 59.7944 187.086 58.8726 186.887 57.746L184.549 44.4826L187.34 43.9905L189.715 57.4587C189.865 58.3122 189.857 59.1145 189.69 59.8655C189.537 60.5965 189.24 61.2561 188.798 61.8445C188.37 62.4127 187.805 62.8996 187.102 63.3052C186.413 63.6907 185.599 63.9662 184.66 64.1317ZM199.592 61.4988C198.278 61.7306 197.121 61.7058 196.121 61.4245C195.135 61.1232 194.228 60.623 193.401 59.9241L194.874 57.9482C195.501 58.5066 196.185 58.8963 196.928 59.1173C197.671 59.3383 198.478 59.372 199.349 59.2185C200.271 59.056 200.925 58.7734 201.311 58.3708C201.712 57.9482 201.858 57.4296 201.75 56.815C201.654 56.2688 201.401 55.8822 200.991 55.6552C200.595 55.4081 200.013 55.2996 199.244 55.3296L197.906 55.3807C197.26 55.4067 196.638 55.3755 196.042 55.287C195.445 55.1986 194.905 55.0298 194.421 54.7807C193.954 54.5286 193.551 54.1862 193.21 53.7534C192.887 53.3176 192.664 52.7497 192.54 52.0498C192.42 51.367 192.441 50.7385 192.604 50.1642C192.764 49.5728 193.042 49.0572 193.44 48.6175C193.835 48.1607 194.331 47.7827 194.93 47.4836C195.545 47.1814 196.237 46.9626 197.005 46.8272C198.286 46.6014 199.37 46.6126 200.259 46.8608C201.144 47.0918 201.963 47.4931 202.715 48.0645L201.323 50.0524C200.852 49.6778 200.282 49.3911 199.614 49.1922C198.945 48.9933 198.21 48.9645 197.407 49.106C196.571 49.2535 195.968 49.527 195.598 49.9266C195.229 50.3262 195.094 50.8076 195.193 51.3709C195.298 51.9684 195.573 52.3776 196.017 52.5986C196.46 52.8195 197.075 52.9135 197.862 52.8805L199.204 52.855C199.887 52.8401 200.519 52.8783 201.098 52.9698C201.695 53.0582 202.218 53.23 202.668 53.4851C203.114 53.7231 203.481 54.0545 203.767 54.4793C204.07 54.9011 204.279 55.4363 204.393 56.0849C204.511 56.7507 204.481 57.3807 204.304 57.9751C204.144 58.5665 203.852 59.1022 203.426 59.5821C203.014 60.0419 202.478 60.4444 201.817 60.7898C201.17 61.115 200.429 61.3513 199.592 61.4988ZM210.573 56.8434C209.685 56.9999 208.982 56.9039 208.463 56.5554C207.943 56.207 207.616 55.6486 207.481 54.8805L207.251 53.5746L209.76 53.1322L210.008 54.5404L214.284 53.7865L214.695 56.1165L210.573 56.8434ZM209.435 50.391C208.547 50.5475 207.845 50.46 207.329 50.1286C206.81 49.7801 206.483 49.2218 206.348 48.4536L206.113 47.1222L208.622 46.6797L208.87 48.088L213.146 47.334L213.557 49.6641L209.435 50.391ZM224.278 57.1462C223.424 57.2967 222.629 57.3312 221.893 57.2498C221.174 57.1653 220.531 56.9619 219.964 56.6395C219.397 56.3171 218.921 55.8642 218.536 55.2808C218.152 54.6973 217.885 53.9789 217.734 53.1254C217.562 52.1524 217.555 51.3617 217.712 50.7532C217.883 50.1247 218.098 49.5498 218.358 49.0288C218.607 48.5448 218.795 48.0629 218.922 47.5829C219.048 47.103 219.071 46.6326 218.99 46.1717L218.904 45.6852L216.318 46.1412L215.907 43.8111L218.826 43.2965C219.594 43.161 220.216 43.2449 220.692 43.5482C221.182 43.8315 221.483 44.2889 221.594 44.9205L221.625 45.0997C221.725 45.663 221.719 46.2273 221.607 46.7926C221.51 47.3378 221.325 47.9864 221.053 48.7384C220.842 49.3389 220.683 49.8861 220.576 50.3801C220.484 50.854 220.49 51.3897 220.596 51.9871L220.727 52.7297C220.877 53.5832 221.222 54.1912 221.761 54.5537C222.317 54.9133 223.005 55.0208 223.825 54.8763C224.644 54.7319 225.245 54.3971 225.628 53.872C226.027 53.3439 226.152 52.6531 226.001 51.7996L225.654 49.828C225.515 49.0428 225.272 48.4609 224.924 48.0823C224.592 47.7007 224.128 47.5626 223.53 47.6679L223.044 47.7537L222.669 45.6285L223.284 45.5201C223.796 45.4298 224.188 45.211 224.462 44.8636C224.732 44.4992 224.807 43.9755 224.686 43.2927L224.42 41.7821L227.16 41.299L227.39 42.6048C227.525 43.373 227.409 44.0623 227.042 44.6727C226.688 45.2631 226.105 45.7003 225.293 45.9843L225.32 46.1379C226.239 46.2575 226.991 46.6794 227.576 47.4034C228.175 48.1074 228.588 49.0995 228.814 50.3797C229.13 52.1721 228.919 53.6701 228.18 54.8739C227.456 56.0577 226.155 56.8151 224.278 57.1462ZM237.742 44.634C237.598 43.8146 237.273 43.2206 236.768 42.8521C236.263 42.4835 235.55 42.3805 234.628 42.543C233.843 42.6815 233.241 42.9635 232.823 43.3892C232.403 43.7978 232.068 44.2968 231.82 44.8862L229.868 43.6991C230.194 42.8496 230.707 42.1167 231.408 41.5003C232.109 40.8839 233.108 40.4613 234.405 40.2326C236.112 39.9316 237.489 40.1025 238.535 40.7452C239.581 41.388 240.237 42.4604 240.502 43.9626L242.213 53.6669L239.422 54.159L237.742 44.634ZM251.383 52.3668C250.529 52.5173 249.735 52.5518 248.999 52.4704C248.28 52.3859 247.637 52.1825 247.069 51.8601C246.502 51.5377 246.026 51.0848 245.642 50.5014C245.257 49.9179 244.99 49.1995 244.839 48.346C244.668 47.373 244.66 46.5823 244.817 45.9738C244.988 45.3453 245.203 44.7704 245.463 44.2494C245.713 43.7654 245.9 43.2835 246.027 42.8035C246.154 42.3236 246.176 41.8532 246.095 41.3923L246.009 40.9058L243.423 41.3618L243.012 39.0317L245.931 38.5171C246.699 38.3816 247.321 38.4655 247.797 38.7688C248.287 39.0521 248.588 39.5095 248.699 40.1411L248.731 40.3203C248.83 40.8836 248.824 41.4479 248.712 42.0132C248.615 42.5584 248.43 43.207 248.158 43.959C247.947 44.5595 247.788 45.1067 247.682 45.6007C247.589 46.0746 247.596 46.6103 247.701 47.2077L247.832 47.9503C247.983 48.8038 248.327 49.4118 248.867 49.7744C249.423 50.1339 250.111 50.2414 250.93 50.097C251.749 49.9525 252.35 49.6177 252.733 49.0926C253.133 48.5645 253.257 47.8737 253.107 47.0202L252.759 45.0486C252.621 44.2634 252.377 43.6815 252.029 43.3029C251.698 42.9213 251.233 42.7832 250.636 42.8885L250.149 42.9743L249.774 40.8491L250.389 40.7407C250.901 40.6504 251.294 40.4316 251.567 40.0842C251.837 39.7198 251.912 39.1962 251.792 38.5134L251.525 37.0027L254.265 36.5196L254.495 37.8254C254.631 38.5936 254.515 39.2829 254.147 39.8933C253.793 40.4837 253.21 40.9209 252.398 41.2049L252.425 41.3585C253.344 41.4782 254.096 41.9 254.681 42.624C255.281 43.328 255.693 44.3201 255.919 45.6003C256.235 47.3927 256.024 48.8907 255.286 50.0945C254.562 51.2783 253.261 52.0357 251.383 52.3668ZM264.943 49.9758C263.475 50.2347 262.257 49.9654 261.289 49.168C260.318 48.3536 259.679 47.0758 259.372 45.3346L257.801 36.4241L260.592 35.932L262.109 44.5353C262.301 45.6277 262.671 46.425 263.217 46.9272C263.777 47.4092 264.561 47.5614 265.568 47.3839C265.944 47.3176 266.312 47.2087 266.672 47.0572C267.03 46.8885 267.335 46.6762 267.589 46.4202C267.86 46.1612 268.054 45.863 268.171 45.5256C268.301 45.1682 268.329 44.7761 268.254 44.3494L266.583 34.8755L269.374 34.3834L271.451 46.1617L272.936 45.8998L273.338 48.1787L271.494 48.5037C270.778 48.6302 270.204 48.5201 269.773 48.1737C269.339 47.8101 269.039 47.2558 268.873 46.5108L268.745 46.5333C268.593 47.3697 268.204 48.1072 267.577 48.7457C266.964 49.3641 266.086 49.7742 264.943 49.9758Z" fill="white"/>
<rect x="64.6074" y="114.431" width="106" height="8" transform="rotate(-10 64.6074 114.431)" fill="#D2D2D2"/>
<rect x="66.6914" y="126.249" width="47" height="8" transform="rotate(-10 66.6914 126.249)" fill="#D2D2D2"/>
<rect x="74.7656" y="172.042" width="161" height="8" transform="rotate(-10 74.7656 172.042)" fill="#D2D2D2"/>
<rect x="76.8496" y="183.86" width="161" height="8" transform="rotate(-10 76.8496 183.86)" fill="#D2D2D2"/>
<rect x="78.9331" y="195.677" width="101" height="8" transform="rotate(-10 78.9331 195.677)" fill="#D2D2D2"/>
<rect x="87.0078" y="241.471" width="65" height="8" transform="rotate(-10 87.0078 241.471)" fill="#D2D2D2"/>
<rect x="89.0918" y="253.289" width="65" height="8" transform="rotate(-10 89.0918 253.289)" fill="#D2D2D2"/>
<rect x="177.61" y="225.495" width="65" height="8" transform="rotate(-10 177.61 225.495)" fill="#D2D2D2"/>
<rect x="179.694" y="237.313" width="65" height="8" transform="rotate(-10 179.694 237.313)" fill="#D2D2D2"/>
<rect x="245.812" y="82.4796" width="106" height="149" rx="8" transform="rotate(-10 245.812 82.4796)" fill="#D2D2D2"/>
<path d="M310.71 146.932C325.233 144.371 334.927 130.526 332.366 116.004C329.806 101.482 315.961 91.7875 301.438 94.3481C286.916 96.9088 277.222 110.754 279.783 125.276C282.343 139.798 296.188 149.492 310.71 146.932ZM330.274 150.26L326.843 150.864C322.653 153.764 317.789 155.85 312.449 156.791C307.108 157.733 301.845 157.433 296.895 156.145L293.465 156.75C278.224 159.437 268.039 173.983 270.726 189.224L272.233 197.769C273.193 203.212 278.388 206.85 283.831 205.89L356.134 193.141C361.577 192.181 365.214 186.986 364.255 181.543L362.748 172.998C360.06 157.757 345.515 147.572 330.274 150.26Z" fill="white"/>
</g>
<path d="M53.928 53.8653L339.522 3.50732C345.777 2.40443 351.742 6.58087 352.844 12.8357L387.4 208.812C388.503 215.067 384.327 221.032 378.072 222.135L92.4778 272.493C86.2231 273.595 80.2585 269.419 79.1556 263.164L44.5996 67.1875L44.5113 66.6022C43.7595 60.5648 47.8686 54.9337 53.928 53.8653Z" stroke="white"/>
</g>
<defs>
<filter id="filter0_dd_43_23479" x="0.000488281" y="0.931152" width="409.976" height="314.138" filterUnits="userSpaceOnUse" color-interpolation-filters="sRGB">
<feFlood flood-opacity="0" result="BackgroundImageFix"/>
<feColorMatrix in="SourceAlpha" type="matrix" values="0 0 0 0 0 0 0 0 0 0 0 0 0 0 0 0 0 0 127 0" result="hardAlpha"/>
<feMorphology radius="5" operator="erode" in="SourceAlpha" result="effect1_dropShadow_43_23479"/>
<feOffset dy="10"/>
<feGaussianBlur stdDeviation="5"/>
<feColorMatrix type="matrix" values="0 0 0 0 0 0 0 0 0 0 0 0 0 0 0 0 0 0 0.04 0"/>
<feBlend mode="normal" in2="BackgroundImageFix" result="effect1_dropShadow_43_23479"/>
<feColorMatrix in="SourceAlpha" type="matrix" values="0 0 0 0 0 0 0 0 0 0 0 0 0 0 0 0 0 0 127 0" result="hardAlpha"/>
<feMorphology radius="5" operator="erode" in="SourceAlpha" result="effect2_dropShadow_43_23479"/>
<feOffset dy="20"/>
<feGaussianBlur stdDeviation="12.5"/>
<feColorMatrix type="matrix" values="0 0 0 0 0 0 0 0 0 0 0 0 0 0 0 0 0 0 0.1 0"/>
<feBlend mode="normal" in2="effect1_dropShadow_43_23479" result="effect2_dropShadow_43_23479"/>
<feBlend mode="normal" in="SourceGraphic" in2="effect2_dropShadow_43_23479" result="shape"/>
</filter>
<filter id="filter1_dd_43_23479" x="0.000488281" y="30.3477" width="361.591" height="273.823" filterUnits="userSpaceOnUse" color-interpolation-filters="sRGB">
<feFlood flood-opacity="0" result="BackgroundImageFix"/>
<feColorMatrix in="SourceAlpha" type="matrix" values="0 0 0 0 0 0 0 0 0 0 0 0 0 0 0 0 0 0 127 0" result="hardAlpha"/>
<feMorphology radius="5" operator="erode" in="SourceAlpha" result="effect1_dropShadow_43_23479"/>
<feOffset dy="10"/>
<feGaussianBlur stdDeviation="5"/>
<feColorMatrix type="matrix" values="0 0 0 0 0 0 0 0 0 0 0 0 0 0 0 0 0 0 0.04 0"/>
<feBlend mode="normal" in2="BackgroundImageFix" result="effect1_dropShadow_43_23479"/>
<feColorMatrix in="SourceAlpha" type="matrix" values="0 0 0 0 0 0 0 0 0 0 0 0 0 0 0 0 0 0 127 0" result="hardAlpha"/>
<feMorphology radius="5" operator="erode" in="SourceAlpha" result="effect2_dropShadow_43_23479"/>
<feOffset dy="20"/>
<feGaussianBlur stdDeviation="12.5"/>
<feColorMatrix type="matrix" values="0 0 0 0 0 0 0 0 0 0 0 0 0 0 0 0 0 0 0.1 0"/>
<feBlend mode="normal" in2="effect1_dropShadow_43_23479" result="effect2_dropShadow_43_23479"/>
<feBlend mode="normal" in="SourceGraphic" in2="effect2_dropShadow_43_23479" result="shape"/>
</filter>
<clipPath id="clip0_43_23479">
<path d="M27.3644 42.3403C27.5957 35.717 33.1525 30.5352 39.7759 30.7665L329.599 40.8873C336.223 41.1186 341.404 46.6754 341.173 53.2988L334.228 252.178C333.997 258.801 328.44 263.983 321.817 263.751L31.9933 253.631C25.3699 253.399 20.1881 247.842 20.4194 241.219L27.3644 42.3403Z" fill="white"/>
</clipPath>
<clipPath id="clip1_43_23479">
<path d="M44.1072 67.2744C42.9564 60.7476 47.3144 54.5237 53.8411 53.3729L339.435 3.01492C345.962 1.86408 352.186 6.2221 353.337 12.7488L387.893 208.726C389.044 215.252 384.686 221.476 378.159 222.627L92.5647 272.985C86.038 274.136 79.814 269.778 78.6632 263.251L44.1072 67.2744Z" fill="white"/>
</clipPath>
</defs>
</svg>
